
<svg id="Layer_2" xmlns="http://www.w3.org/2000/svg" viewBox="0 0 693.15 101.39">
  <g id="Layer_1-2" data-name="Layer_1">
    <g>
      <g>
        <path d="M67.03,33.8c-1.6-2.64-3.8-4.67-6.58-6.08-2.78-1.41-6.06-2.12-9.83-2.12-6.98,0-12.47,2.26-16.47,6.79-4.01,4.52-6.01,10.61-6.01,18.24,0,8.58,2.14,15.11,6.43,19.58,4.29,4.48,10.54,6.72,18.74,6.72,9.71,0,16.64-4.38,20.79-13.15h-27.86v-19.94h51.76v26.87c-2.17,5.28-5.35,10.23-9.55,14.85-4.2,4.62-9.5,8.41-15.91,11.38-6.41,2.97-13.72,4.45-21.92,4.45-9.99,0-18.83-2.14-26.51-6.43-7.68-4.29-13.62-10.27-17.82-17.96C2.1,69.31,0,60.52,0,50.62s2.1-18.55,6.29-26.23c4.19-7.68,10.11-13.67,17.75-17.96C31.68,2.15,40.49,0,50.48,0c12.54,0,22.91,3.02,31.11,9.05,8.2,6.03,13.29,14.28,15.27,24.75h-29.84Z"/>
        <path d="M173.51,84.42h-35.35l-5.37,16.26h-29.13L139.99.99h31.96l36.2,99.69h-29.27l-5.37-16.26ZM166.58,63.21l-10.75-32.24-10.61,32.24h21.35Z"/>
        <path d="M333.58.99v99.69h-27.72v-55.01l-18.81,55.01h-23.19l-18.95-55.43v55.43h-27.72V.99h33.51l25.03,64.76L300.21.99h33.37Z"/>
        <path d="M377.13,23.19v16.26h31.82v21.07h-31.82v17.96h36.06v22.2h-63.77V.99h63.77v22.2h-36.06Z"/>
      </g>
      <g>
        <path d="M649.26,59.57c-1.34-1.17-3.26-1.76-5.74-1.76h-11.69v13.24h11.79c5.1,0,7.65-2.14,7.65-6.41,0-2.21-.67-3.9-2.02-5.07Z"/>
        <path d="M439.15,1.11v100h254V1.11h-254ZM526.32,87.4h-20.27v-29.27h-24.72v29.27h-20.27V14.47h20.27v27.41h24.72V14.47h20.27v72.92ZM600.38,56.78c0,6.69-1.41,12.4-4.24,17.12-2.83,4.72-6.67,8.28-11.53,10.65-4.86,2.38-10.26,3.57-16.19,3.57s-11.22-1.19-15.88-3.57c-4.65-2.38-8.31-5.91-10.96-10.6-2.66-4.69-3.98-10.41-3.98-17.17V14.47h20.17v42.31c0,3.93.91,6.97,2.74,9.1,1.83,2.14,4.6,3.21,8.33,3.21s6.53-1.09,8.43-3.26c1.9-2.17,2.84-5.19,2.84-9.05V14.47h20.27v42.31ZM665.65,82.12c-4.28,3.52-10.28,5.28-18,5.28h-36.1V14.47h34.96c7.45,0,13.29,1.66,17.53,4.97s6.36,7.96,6.36,13.96c0,4.28-1.12,7.85-3.36,10.71-2.24,2.86-5.22,4.81-8.95,5.84,4.27.97,7.67,3.09,10.19,6.36,2.52,3.28,3.78,7.02,3.78,11.22,0,6.21-2.14,11.07-6.41,14.58Z"/>
        <path d="M649.72,37.12c0-4.34-2.55-6.52-7.65-6.52h-10.24v12.83h10.24c5.1,0,7.65-2.1,7.65-6.31Z"/>
      </g>
    </g>
  </g>
</svg>